# xmcd
# 
# Track frame offsets:
#     150
#     12390
#     25650
#     39814
#     52814
#     68102
#     79832
#     91701
#     104922
#     120388
#     149661
#     166681
#     179589
#     189850
#     206478
#     224145
#     238240
# 
# Disc length: 3449
# 
# Revision: 1
# Processed by: cddbd v1.5.2PL0 Copyright (c) Steve Scherf et al.
# Submitted via: BonkEnc v1.0
# 
DISCID=e80d7711
DTITLE=Charles, Ray - Ultimate Hits Collection
DYEAR=1999
DGENRE=R&B, Soul
TTITLE0=Mess Around
TTITLE1=I've Got a Woman
TTITLE2=A Fool for You
TTITLE3=Greenbacks
TTITLE4=Drown in My Own Tears
TTITLE5=Halleluja I Love Her So
TTITLE6=Lonely Avenue
TTITLE7=Ain't That Love
TTITLE8=(Night Time Is) The Right Time
TTITLE9=What'd I Say Parts I and II
TTITLE10=Don't Let the Sun Catch You Cryin'
TTITLE11=Them That Got
TTITLE12=Sticks and Stones
TTITLE13=Georgia on My Mind
TTITLE14=Ruby
TTITLE15=One Mint Julep
TTITLE16=I've Got News for You
EXTD=
EXTT0=
EXTT1=
EXTT2=
EXTT3=
EXTT4=
EXTT5=
EXTT6=
EXTT7=
EXTT8=
EXTT9=
EXTT10=
EXTT11=
EXTT12=
EXTT13=
EXTT14=
EXTT15=
EXTT16=
PLAYORDER=
